<svg xmlns="http://www.w3.org/2000/svg" width="112.125" height="112.125"><path data-name="Tracé 12" d="M0 97.667a14.457 14.457 0 0014.458 14.458h83.209a14.457 14.457 0 0014.458-14.458V14.458A14.457 14.457 0 0097.667 0H14.458A14.457 14.457 0 000 14.458v83.209z" fill="#563d7c"/><path data-name="Tracé 13" d="M46.493 49.597V33.718h13.98a21.74 21.74 0 013.851.333 9.611 9.611 0 013.281 1.188 6.338 6.338 0 012.281 2.379 7.894 7.894 0 01.856 3.9q0 4.279-2.567 6.18a10.73 10.73 0 01-6.561 1.9zM31.568 22.118v67.888h32.9a34.708 34.708 0 008.89-1.141 23.777 23.777 0 007.7-3.518 17.329 17.329 0 005.372-6.133 18.681 18.681 0 002-8.89 18.811 18.811 0 00-3.09-10.887 16.318 16.318 0 00-9.366-6.323 16.921 16.921 0 006.894-5.61 14.872 14.872 0 002.329-8.557 18.21 18.21 0 00-1.569-7.987 13.047 13.047 0 00-4.421-5.182 19.083 19.083 0 00-6.846-2.8 42.264 42.264 0 00-8.843-.856zm14.925 56.288V59.77h16.259a12.578 12.578 0 017.8 2.235q2.947 2.234 2.948 7.464a9.33 9.33 0 01-.9 4.374 7.175 7.175 0 01-2.425 2.71 10.268 10.268 0 01-3.518 1.427 19.96 19.96 0 01-4.184.427z" fill="#fff"/></svg>