<svg xmlns="http://www.w3.org/2000/svg" width="79.437" height="112.125"><path data-name="Tracé 14" d="M39.67 112.125l-32.441-9.006L0 22.035h79.437L72.2 103.106l-32.53 9.018z" fill="#264de4"/><path data-name="Tracé 15" d="M66.004 97.944l6.184-69.279h-32.47v76.567z" fill="#2965f1"/><path data-name="Tracé 16" d="M16.573 58.738l.891 9.945h22.254v-9.945zm-1.791-20.123l.9 9.945h24.036v-9.945zm24.936 45.95l-.044.012-11.075-2.991-.708-7.931h-9.982l1.393 15.615 20.371 5.655.046-.012z" fill="#ebebeb"/><path data-name="Tracé 17" d="M18.695 0h12.044v5.037h-7.007v5.037h7.008v5.036H18.695zm14.453 0h12.045v4.38h-7.008v.876h7.008V15.33H33.149v-4.6h7.008v-.876h-7.009V0zm14.454 0h12.045v4.38h-7.008v.876h7.008V15.33H47.602v-4.6h7.009v-.876h-7.009V0z"/><path data-name="Tracé 18" d="M62.8 58.738l1.795-20.123H39.684v9.945h14.011l-.9 10.183H39.684v9.945H51.93l-1.155 12.9-11.091 2.994v10.333l20.387-5.65.149-1.68 2.337-26.181.243-2.67z" fill="#fff"/></svg>