<svg xmlns="http://www.w3.org/2000/svg" width="79.437" height="112.125"><path data-name="Tracé 26" d="M79.437 22.035L72.2 103.106l-32.53 9.018-32.441-9.005L0 22.035h79.437z" fill="#e44d26"/><path data-name="Tracé 27" d="M39.718 105.232l26.286-7.287 6.184-69.279h-32.47z" fill="#f16529"/><path data-name="Tracé 28" d="M25.65 48.555h14.068v-9.94H14.782l.238 2.668 2.444 27.4h22.254v-9.945H26.559zm2.241 25.1h-9.982l1.393 15.615 20.371 5.655.046-.012V84.565l-.044.012L28.6 81.586l-.708-7.931z" fill="#ebebeb"/><path data-name="Tracé 29" d="M7.391 0h5.054v4.993h4.623V0h5.054v15.12h-5.054v-5.063h-4.623v5.063H7.391V0zm21.376 5.014h-4.448V0h13.954v5.014h-4.451V15.12h-5.054V5.014zM40.488 0h5.27l3.241 5.313L52.237 0h5.274v15.12h-5.035V7.626L48.999 13h-.088l-3.478-5.374v7.494h-4.945zm19.536 0h5.055v10.122h7.107v5H60.024V0z"/><path data-name="Tracé 30" d="M39.684 68.683H51.93l-1.155 12.9-11.091 2.994v10.338l20.387-5.65.149-1.68 2.337-26.181.243-2.67H39.684zm0-20.152v.024h24.021l.2-2.235.453-5.042.237-2.663H39.684v9.921z" fill="#fff"/></svg>