<svg xmlns="http://www.w3.org/2000/svg" width="79.654" height="112.125"><path data-name="Tracé 31" d="M79.654 21.972H0l7.468 80.977 32.355 9.176 32.355-9.176z" fill="#e6a329"/><path data-name="Tracé 32" d="M39.822 28.57v76.693l26.215-7.427 6.377-69.266z" fill="#f1bf22"/><path data-name="Tracé 33" d="M60.677 38.504H20.371l-2.808 30.318.058-.188h34.242l-1.117 12.827-10.924 3.143-11.087-3.193-.664-7.764H18.007l1.435 15.514 20.38 5.786 20.389-5.786 2.808-30.449H26.677l.466-10.145h25.215l.377 5.813h10.154z" fill="#fff"/><path data-name="Tracé 34" d="M39.831 38.504h-19.46l-2.808 30.318.058-.188h22.21v-9.889H28.094l.469-10.141h11.271zM28.094 73.648H18.007l1.435 15.5 20.38 5.777V84.614l-11.087-3.2z" fill="#ebebeb"/><path data-name="Tracé 35" d="M32.077 10.028h-7.091v5.09h12.163V0h-5.073zM54.663.081h-12.36v5.292c1.651 1.65 2.512 2.444 4.943 4.835h-4.943v4.826h12.361v-4.817l-4.943-4.835h4.943z" fill="#231f20"/></svg>