<svg xmlns="http://www.w3.org/2000/svg" width="144" height="81"><defs><clipPath id="a"><path d="M14.4-347.939c0 20.081 30.947 36.36 69.12 36.36s69.12-16.279 69.12-36.36-30.947-36.36-69.12-36.36-69.12 16.279-69.12 36.36" transform="translate(-14.4 384.299)"/></clipPath><clipPath id="c"><path d="M0-405h144v81H0z" transform="translate(0 405)"/></clipPath><radialGradient id="b" cx="101.282" cy="-326.134" r="172.544" gradientTransform="matrix(.526 0 0 .526 41.179 27.568)" gradientUnits="userSpaceOnUse"><stop offset="0" stop-color="#aeb2d5"/><stop offset=".3" stop-color="#aeb2d5"/><stop offset=".75" stop-color="#484c89"/><stop offset="1" stop-color="#484c89"/></radialGradient></defs><g clip-path="url(#a)" transform="translate(2.88 4.14)"><path d="M14.4-347.939c0 20.081 30.947 36.36 69.12 36.36s69.12-16.279 69.12-36.36-30.947-36.36-69.12-36.36-69.12 16.279-69.12 36.36" transform="translate(-14.4 384.299)" fill="url(#b)"/></g><g clip-path="url(#c)"><path d="M72 74.161c36.682 0 66.42-15.07 66.42-33.66S108.68 6.843 72 6.843 5.58 21.914 5.58 40.503 35.318 74.163 72 74.163" fill="#777bb3"/></g><g clip-path="url(#c)"><path d="M40.434 44.673c3.016 0 5.268-.556 6.693-1.653 1.41-1.085 2.383-2.965 2.893-5.588.476-2.451.295-4.163-.538-5.087-.852-.943-2.693-1.422-5.473-1.422h-4.82l-2.673 13.75zM24.668 61.611a.749.749 0 01-.578-.273.75.75 0 01-.158-.62l7.082-36.438a.75.75 0 01.736-.607h15.264c4.8 0 8.368 1.3 10.612 3.872s2.953 6.193 2.071 10.73a17.127 17.127 0 01-1.835 5.1 17.084 17.084 0 01-3.378 4.233 14.818 14.818 0 01-5.559 3.331 25.181 25.181 0 01-7.637.982h-6.181l-1.765 9.081a.75.75 0 01-.736.607z"/><path d="M39.806 31.673h4.2c3.355 0 4.521.736 4.917 1.175.657.728.781 2.264.359 4.442-.475 2.437-1.354 4.166-2.615 5.136-1.291.994-3.389 1.5-6.235 1.5h-3.009zm7.208-8.75H31.75a1.5 1.5 0 00-1.472 1.214l-7.083 36.436a1.5 1.5 0 00.315 1.24 1.5 1.5 0 001.158.546h7.937a1.5 1.5 0 001.472-1.214l1.648-8.472h5.562a25.913 25.913 0 007.87-1.019 15.567 15.567 0 005.839-3.5 17.841 17.841 0 003.52-4.414 17.875 17.875 0 001.917-5.325c.929-4.776.174-8.6-2.242-11.367-2.393-2.739-6.153-4.128-11.177-4.128m-11.408 22.5h4.828q4.8 0 7.15-1.809t3.173-6.038q.788-4.062-.718-5.732t-6.03-1.67h-5.438l-2.964 15.25m11.408-21q6.888 0 10.047 3.615t1.9 10.094a16.315 16.315 0 01-1.754 4.88 16.273 16.273 0 01-3.231 4.046 14.02 14.02 0 01-5.283 3.17 24.332 24.332 0 01-7.405.945h-6.8l-1.883 9.687h-7.937l7.082-36.437h15.264" fill="#fff"/><path d="M77.896 51.924a.749.749 0 01-.578-.273.749.749 0 01-.158-.62l3.133-16.122c.3-1.533.225-2.634-.207-3.1-.264-.284-1.057-.761-3.4-.761h-5.675l-3.939 20.268a.75.75 0 01-.736.607h-7.875a.75.75 0 01-.579-.273.75.75 0 01-.158-.62l7.082-36.438a.75.75 0 01.736-.607h7.875a.75.75 0 01.579.273.75.75 0 01.158.62l-1.708 8.796h6.1c4.651 0 7.805.82 9.642 2.507 1.872 1.721 2.457 4.473 1.737 8.18L86.63 51.317a.75.75 0 01-.736.607z"/><path d="M73.415 13.236h-7.872a1.5 1.5 0 00-1.473 1.214l-7.082 36.438a1.5 1.5 0 00.315 1.24 1.5 1.5 0 001.157.546h7.875a1.5 1.5 0 001.473-1.214l3.821-19.661h5.057c2.341 0 2.832.5 2.852.522.142.153.329.86.021 2.445l-3.136 16.122a1.5 1.5 0 00.315 1.24 1.5 1.5 0 001.158.546h8a1.5 1.5 0 001.473-1.214l3.295-16.956c.773-3.98.112-6.966-1.965-8.875-1.982-1.82-5.3-2.705-10.15-2.705h-5.2l1.536-7.9a1.5 1.5 0 00-.315-1.24 1.5 1.5 0 00-1.155-.548m0 1.5l-1.883 9.688h7.011q6.621 0 9.135 2.309t1.508 7.485l-3.295 16.956h-8l3.133-16.122q.535-2.751-.394-3.752t-3.951-1h-6.294l-4.052 20.874h-7.875l7.085-36.438h7.875" fill="#fff"/><path d="M102.388 44.673c3.016 0 5.268-.556 6.693-1.653 1.41-1.085 2.383-2.965 2.894-5.588.476-2.451.295-4.163-.539-5.087-.852-.943-2.693-1.422-5.473-1.422h-4.82l-2.673 13.75zM86.622 61.611a.749.749 0 01-.578-.273.75.75 0 01-.158-.62l7.082-36.438a.75.75 0 01.737-.607h15.263c4.8 0 8.368 1.3 10.612 3.872s2.953 6.193 2.071 10.73a17.141 17.141 0 01-1.836 5.1 17.084 17.084 0 01-3.378 4.233 14.818 14.818 0 01-5.559 3.331 25.181 25.181 0 01-7.637.982H97.06l-1.764 9.081a.75.75 0 01-.736.607z"/><path d="M101.76 31.673h4.2c3.355 0 4.521.736 4.917 1.175.657.728.781 2.264.359 4.441-.475 2.438-1.354 4.166-2.615 5.136-1.291.994-3.388 1.5-6.235 1.5h-3.008zm7.208-8.75H93.704a1.5 1.5 0 00-1.472 1.214L85.15 60.573a1.5 1.5 0 00.315 1.24 1.5 1.5 0 001.157.546h7.938a1.5 1.5 0 001.473-1.214l1.646-8.472h5.562a25.913 25.913 0 007.87-1.019 15.567 15.567 0 005.839-3.5 17.832 17.832 0 003.52-4.414 17.875 17.875 0 001.917-5.325c.929-4.776.174-8.6-2.242-11.367-2.393-2.739-6.153-4.128-11.176-4.128m-11.408 22.5h4.828q4.8 0 7.15-1.809t3.171-6.038q.788-4.062-.718-5.732t-6.03-1.67h-5.438l-2.964 15.25m11.408-21q6.888 0 10.047 3.615t1.9 10.094a16.314 16.314 0 01-1.754 4.88 16.273 16.273 0 01-3.23 4.046 14.02 14.02 0 01-5.283 3.17 24.332 24.332 0 01-7.405.945h-6.8l-1.883 9.687h-7.937l7.082-36.437h15.264" fill="#fff"/></g></svg>